<svg class="icon" style="width: 2em;height: 2em;vertical-align: middle;fill: currentColor;overflow: hidden;" viewBox="0 0 1024 1024" version="1.1" xmlns="http://www.w3.org/2000/svg" p-id="1437"><path d="M512 1024A512 512 0 1 1 512 0a512 512 0 0 1 0 1024z m360.009143-523.190857l-111.908572-111.908572a42.057143 42.057143 0 0 0-68.754285 13.677715 42.203429 42.203429 0 0 0 8.996571 45.933714l88.795429 88.795429-88.795429 88.722285a42.276571 42.276571 0 0 0 59.757714 59.757715l111.981715-111.981715a42.057143 42.057143 0 0 0 19.748571-35.254857 42.130286 42.130286 0 0 0-19.748571-37.741714z m-637.074286 20.626286l88.722286-88.795429a42.203429 42.203429 0 1 0-59.757714-59.757714l-111.908572 111.908571a42.130286 42.130286 0 0 0-19.748571 35.766857 42.203429 42.203429 0 0 0 19.968 37.522286L264.045714 669.842286a42.057143 42.057143 0 0 0 59.757715 0 42.203429 42.203429 0 0 0 0-59.684572L234.788571 521.435429zM596.333714 348.891429a42.130286 42.130286 0 0 0-36.571428 21.065142L391.094857 662.381714a42.203429 42.203429 0 0 0 73.069714 42.203429l168.740572-292.352a42.203429 42.203429 0 0 0-36.571429-63.268572z" fill="#5987E8" p-id="1438" data-spm-anchor-id="a313x.7781069.1998910419.i3"></path></svg>